<?xml version="1.0" encoding="UTF-8" standalone="no"?>
<!DOCTYPE svg PUBLIC "-//W3C//DTD SVG 1.1//EN"
 "http://www.w3.org/Graphics/SVG/1.1/DTD/svg11.dtd">
<!-- Generated by graphviz version 2.40.1 (20161225.0304)
 -->
<!-- Title: dependencies Pages: 1 -->
<svg width="504pt" height="284pt"
 viewBox="0.00 0.00 504.00 284.00" xmlns="http://www.w3.org/2000/svg" xmlns:xlink="http://www.w3.org/1999/xlink">
<g id="graph0" class="graph" transform="scale(1 1) rotate(0) translate(4 280)">
<title>dependencies</title>
<polygon fill="#ffffff" stroke="transparent" points="-4,4 -4,-280 500,-280 500,4 -4,4"/>
<text text-anchor="start" x="227.0091" y="-42.4" font-family="sans-serif" font-weight="bold" font-size="14.00" fill="#000000">Legend</text>
<polygon fill="#ffffb3" stroke="transparent" points="14,-10 14,-30 34,-30 34,-10 14,-10"/>
<text text-anchor="start" x="37.629" y="-15.4" font-family="sans-serif" font-size="14.00" fill="#000000"> &#160;Declarations</text>
<polygon fill="#8dd3c7" stroke="transparent" points="127,-10 127,-30 147,-30 147,-10 127,-10"/>
<text text-anchor="start" x="150.7251" y="-15.4" font-family="sans-serif" font-size="14.00" fill="#000000"> &#160;Module</text>
<polygon fill="#80b1d3" stroke="transparent" points="213,-10 213,-30 233,-30 233,-10 213,-10"/>
<text text-anchor="start" x="236.7812" y="-15.4" font-family="sans-serif" font-size="14.00" fill="#000000"> &#160;Bootstrap</text>
<polygon fill="#fdb462" stroke="transparent" points="310,-10 310,-30 330,-30 330,-10 310,-10"/>
<text text-anchor="start" x="333.6732" y="-15.4" font-family="sans-serif" font-size="14.00" fill="#000000"> &#160;Providers</text>
<polygon fill="#fb8072" stroke="transparent" points="406,-10 406,-30 426,-30 426,-10 406,-10"/>
<text text-anchor="start" x="429.7258" y="-15.4" font-family="sans-serif" font-size="14.00" fill="#000000"> &#160;Exports</text>
<g id="clust1" class="cluster">
<title>cluster_ShareModule</title>
<polygon fill="none" stroke="#000000" stroke-dasharray="1,5" points="116,-70 116,-268 380,-268 380,-70 116,-70"/>
</g>
<g id="clust2" class="cluster">
<title>cluster_ShareModule_declarations</title>
<polygon fill="none" stroke="#000000" points="128,-78 128,-130 368,-130 368,-78 128,-78"/>
</g>
<g id="clust6" class="cluster">
<title>cluster_ShareModule_exports</title>
<polygon fill="none" stroke="#000000" points="124,-208 124,-260 372,-260 372,-208 124,-208"/>
</g>
<!-- ShareCountPipe -->
<g id="node1" class="node">
<title>ShareCountPipe</title>
<polygon fill="#ffffb3" stroke="#000000" points="360.4874,-122 253.5126,-122 253.5126,-86 360.4874,-86 360.4874,-122"/>
<text text-anchor="middle" x="307" y="-99.8" font-family="Times,serif" font-size="14.00" fill="#000000">ShareCountPipe</text>
</g>
<!-- ShareModule -->
<g id="node3" class="node">
<title>ShareModule</title>
<polygon fill="#8dd3c7" stroke="#000000" points="232.9232,-187 229.9232,-191 208.9232,-191 205.9232,-187 141.0768,-187 141.0768,-151 232.9232,-151 232.9232,-187"/>
<text text-anchor="middle" x="187" y="-164.8" font-family="Times,serif" font-size="14.00" fill="#000000">ShareModule</text>
</g>
<!-- ShareCountPipe&#45;&gt;ShareModule -->
<g id="edge1" class="edge">
<title>ShareCountPipe&#45;&gt;ShareModule</title>
<path fill="none" stroke="#000000" d="M324.9146,-122.0225C324.9146,-139.3734 324.9146,-163 324.9146,-163 324.9146,-163 242.9236,-163 242.9236,-163"/>
<polygon fill="#000000" stroke="#000000" points="242.9236,-159.5001 232.9236,-163 242.9235,-166.5001 242.9236,-159.5001"/>
</g>
<!-- ShareDirective -->
<g id="node2" class="node">
<title>ShareDirective</title>
<polygon fill="#ffffb3" stroke="#000000" points="235.9552,-122 136.0448,-122 136.0448,-86 235.9552,-86 235.9552,-122"/>
<text text-anchor="middle" x="186" y="-99.8" font-family="Times,serif" font-size="14.00" fill="#000000">ShareDirective</text>
</g>
<!-- ShareDirective&#45;&gt;ShareModule -->
<g id="edge2" class="edge">
<title>ShareDirective&#45;&gt;ShareModule</title>
<path fill="none" stroke="#000000" d="M187,-122.1061C187,-122.1061 187,-140.991 187,-140.991"/>
<polygon fill="#000000" stroke="#000000" points="183.5001,-140.9909 187,-150.991 190.5001,-140.991 183.5001,-140.9909"/>
</g>
<!-- ShareCountPipe  -->
<g id="node4" class="node">
<title>ShareCountPipe </title>
<polygon fill="#fb8072" stroke="#000000" points="364.4885,-252 253.5115,-252 253.5115,-216 364.4885,-216 364.4885,-252"/>
<text text-anchor="middle" x="309" y="-229.8" font-family="Times,serif" font-size="14.00" fill="#000000">ShareCountPipe </text>
</g>
<!-- ShareModule&#45;&gt;ShareCountPipe  -->
<g id="edge3" class="edge">
<title>ShareModule&#45;&gt;ShareCountPipe </title>
<path fill="none" stroke="#000000" stroke-dasharray="5,2" d="M232.78,-175C260.0274,-175 289.3354,-175 289.3354,-175 289.3354,-175 289.3354,-205.9775 289.3354,-205.9775"/>
<polygon fill="#000000" stroke="#000000" points="285.8355,-205.9774 289.3354,-215.9775 292.8355,-205.9775 285.8355,-205.9774"/>
</g>
<!-- ShareDirective  -->
<g id="node5" class="node">
<title>ShareDirective </title>
<polygon fill="#fb8072" stroke="#000000" points="235.9562,-252 132.0438,-252 132.0438,-216 235.9562,-216 235.9562,-252"/>
<text text-anchor="middle" x="184" y="-229.8" font-family="Times,serif" font-size="14.00" fill="#000000">ShareDirective </text>
</g>
<!-- ShareModule&#45;&gt;ShareDirective  -->
<g id="edge4" class="edge">
<title>ShareModule&#45;&gt;ShareDirective </title>
<path fill="none" stroke="#000000" stroke-dasharray="5,2" d="M187,-187.1061C187,-187.1061 187,-205.991 187,-205.991"/>
<polygon fill="#000000" stroke="#000000" points="183.5001,-205.9909 187,-215.991 190.5001,-205.991 183.5001,-205.9909"/>
</g>
</g>
</svg>
