<?xml version="1.0" encoding="iso-8859-1"?>
<!-- Generator: Adobe Illustrator 19.1.0, SVG Export Plug-In . SVG Version: 6.00 Build 0)  -->
<svg version="1.1" id="Capa_1" xmlns="http://www.w3.org/2000/svg" xmlns:xlink="http://www.w3.org/1999/xlink" x="0px" y="0px"
	 viewBox="0 0 217.229 217.229" style="enable-background:new 0 0 217.229 217.229;" xml:space="preserve">
<g>
	<g id="group-139svg">
		<path id="path-1_44_" style="fill:#FF3A2F;" d="M115.043,182.324h-6.769c-1.305,0-2.363,0.801-2.363,1.789
			c0,0.988,1.058,1.789,2.363,1.789h0.315c1.305,0,2.363,0.8,2.363,1.788c0,0.987-1.058,1.788-2.363,1.788H94.037
			c-1.305,0-2.364,0.801-2.364,1.788c0,0.989,1.059,1.789,2.364,1.789h17.488h35.744c1.305,0,2.364-0.8,2.364-1.789
			c0-0.987-1.059-1.788-2.364-1.788h-4.038c-1.305,0-2.363-0.801-2.363-1.788c0-0.988,1.058-1.788,2.363-1.788h15.861
			c1.306,0,2.364-0.801,2.364-1.789c0-0.988-1.058-1.789-2.364-1.789h-1.183H115.043z"/>
		<path id="path-2_44_" style="fill:#FF3A2F;" d="M157.026,193.534c-1.094,0-1.981-0.858-1.981-1.916
			c0-1.059,0.887-1.917,1.981-1.917h6.072c1.093,0,1.981,0.858,1.981,1.917c0,1.058-0.888,1.916-1.981,1.916H157.026z"/>
		<path id="path-3_44_" style="fill:#FF3A2F;" d="M29.977,182.195h-8.683c-1.674,0-3.031,1.62-3.031,3.618s1.357,3.619,3.031,3.619
			h0.404c1.674,0,3.032,1.619,3.032,3.618c0,1.999-1.358,3.619-3.032,3.619H3.032c-1.674,0-3.032,1.62-3.032,3.618
			c0,1.999,1.358,3.619,3.032,3.619h22.432h45.851c1.674,0,3.032-1.62,3.032-3.619c0-1.998-1.358-3.618-3.032-3.618h-5.18
			c-1.675,0-3.032-1.62-3.032-3.619c0-1.999,1.357-3.618,3.032-3.618h20.346c1.674,0,3.031-1.621,3.031-3.619
			s-1.357-3.618-3.031-3.618h-1.519H29.977z"/>
		<path id="path-4_44_" style="fill:#FF3A2F;" d="M83.831,204.875c-1.404,0-2.542-1.736-2.542-3.878s1.138-3.879,2.542-3.879h7.788
			c1.403,0,2.542,1.737,2.542,3.879s-1.139,3.878-2.542,3.878H83.831z"/>
		<path id="path-5_44_" style="fill:#2476FF;" d="M91.39,167.187c-20.093,0-40.529-5.751-60.749-17.112
			c-1.698-0.953-2.491-2.979-1.891-4.837c0.602-1.85,2.355-2.988,4.374-2.813c15.198,1.77,31.252-1.842,43.276-8.907
			c-13.907-3.27-25.146-12.296-31.075-25.411c-0.665-1.465-0.409-3.187,0.657-4.398c1.05-1.209,2.74-1.691,4.278-1.217
			c1.755,0.545,3.541,0.921,5.271,1.128C44.98,97.326,33.677,85.26,33.677,67.197c0-1.587,0.913-3.029,2.339-3.701
			c1.434-0.69,3.125-0.481,4.35,0.521c1.315,1.073,2.724,1.97,4.174,2.675c-3.02-4.093-5.64-9.174-7.129-14.909
			c-2.732-10.526-1.154-21.18,4.566-30.818c0.68-1.162,1.898-1.906,3.237-2.002c1.313-0.145,2.643,0.472,3.491,1.529
			c12.074,15.085,33.526,33.31,68.032,36.642c-0.633-10.918,2.643-28.814,17.72-37.619c18.418-10.768,36.482-9.357,51.72,3.997
			c6.794-1.513,17.52-6.168,19.739-7.722c1.425-0.993,3.293-0.986,4.702-0.008c1.41,0.987,2.059,2.748,1.618,4.414
			c-1.025,3.869-3.34,8.163-6.232,12.009c2.291-0.681,4.214-1.37,5.239-1.899c1.651-0.841,3.645-0.488,4.911,0.874
			c1.25,1.37,1.426,3.396,0.442,4.966c-4.832,7.627-12.627,14.731-17.843,18.578c2.092,25.602-8.267,53.784-28.006,75.9
			c-21.053,23.578-49.228,36.563-79.342,36.563H91.39z"/>
		<path id="path-6_43_" style="opacity:0.35;enable-background:new    ;" d="M177.842,26.048c2.419-0.539,5.334-1.482,8.189-2.536
			c-11.286-9.864-22.489-12.24-33.13-10.714C160.637,13.966,171.018,20.067,177.842,26.048z"/>
		<path id="path-7_42_" style="opacity:0.35;enable-background:new    ;" d="M116.818,58.87c-0.032-0.557-0.048-1.143-0.058-1.736
			C93.964,56.64,65.678,42.499,48.705,20.492c-0.828-1.073-2.178-1.674-3.491-1.53c-1.339,0.097-2.557,0.843-3.237,2.003
			c-0.596,1.005-1.12,2.024-1.626,3.05C52.442,48.721,84.961,55.793,116.818,58.87z"/>
		<path id="path-8_31_" style="opacity:0.35;enable-background:new    ;" d="M216.154,31.18c-1.266-1.362-3.26-1.715-4.911-0.874
			c-1.025,0.529-2.948,1.218-5.239,1.899c2.892-3.846,5.207-8.14,6.232-12.009c0.441-1.666-0.208-3.427-1.618-4.414
			c-1.409-0.978-3.277-0.985-4.702,0.008c-0.781,0.547-2.648,1.486-4.996,2.53c0.128,0.612,0.163,1.246-0.004,1.876
			c-1.025,3.869-3.34,8.163-6.233,12.009c2.291-0.681,4.214-1.37,5.24-1.899c1.65-0.841,3.645-0.488,4.91,0.874
			c1.251,1.37,1.427,3.396,0.442,4.967c-4.831,7.626-12.626,14.73-17.842,18.577c2.091,25.602-8.267,53.784-28.006,75.902
			c-19.634,21.987-45.465,34.752-73.283,36.374c1.75,0.086,3.5,0.187,5.246,0.187h0.015c30.114,0,58.289-12.985,79.342-36.561
			c19.739-22.118,30.098-50.3,28.006-75.902c5.216-3.847,13.011-10.951,17.843-18.577C217.58,34.576,217.404,32.55,216.154,31.18z"
			/>
	</g>
</g>
<g>
</g>
<g>
</g>
<g>
</g>
<g>
</g>
<g>
</g>
<g>
</g>
<g>
</g>
<g>
</g>
<g>
</g>
<g>
</g>
<g>
</g>
<g>
</g>
<g>
</g>
<g>
</g>
<g>
</g>
</svg>
