<svg xmlns="http://www.w3.org/2000/svg" xmlns:xlink="http://www.w3.org/1999/xlink" xmlns:fi="http://pattern.flaticon.com/" x="0" y="0" width="700" height="350" viewBox="0 0 700 350"><rect x="0px" y="0px" width="100%" height="100%" opacity="0" fill="#ffffff"/><defs><path d="M508.342,94.243c-2.603-2.603-6.942-3.471-10.414-2.603l-17.356,6.075c10.414-12.149,17.356-25.166,21.695-37.315    c1.736-4.339,0.868-7.81-1.736-10.414c-2.603-2.603-6.942-3.471-10.414-1.736c-24.298,10.414-45.125,19.092-62.481,24.298    c0,0.868-0.868,0-1.736,0c-13.885-7.81-47.729-25.166-72.027-25.166c-61.614,0.868-111.078,52.936-111.078,116.285v3.471    c-90.251-17.356-139.715-43.39-193.519-99.797L40.6,58.663l-5.207,10.414c-29.505,56.407-8.678,107.607,25.166,142.319    c-15.62-2.603-26.034-7.81-35.58-15.62c-3.471-2.603-7.81-3.471-12.149-0.868c-3.471,1.736-5.207,6.942-4.339,11.281    c12.149,40.786,42.522,73.763,75.498,93.722c-15.62,0-28.637-1.736-41.654-10.414c-3.471-1.736-8.678-1.736-12.149,0.868    s-5.207,6.942-3.471,11.281c15.62,44.258,45.993,67.688,94.59,73.763c-25.166,14.753-58.142,26.902-109.342,27.77    c-5.207,0-9.546,3.471-11.281,7.81c-1.736,5.207,0,9.546,3.471,13.017c31.241,25.166,100.664,39.919,186.576,39.919    c152.732,0,277.695-136.244,277.695-303.729v-2.603c19.092-9.546,34.712-27.77,42.522-52.936    C511.813,101.185,510.945,96.846,508.342,94.243z M456.274,143.707l-5.207,1.736v14.753    c0,157.939-117.153,286.373-260.339,286.373c-78.97,0-131.905-13.017-160.542-26.902c59.878-4.339,94.59-23.431,121.492-44.258    l21.695-15.62h-26.034c-49.464,0-79.837-13.885-97.193-46.861c15.62,5.207,32.108,5.207,50.332,4.339    c6.942-0.868,13.885-0.868,20.827-0.868l2.603-17.356c-32.976-9.546-72.027-39.051-91.119-78.969    c17.356,7.81,36.447,9.546,53.803,9.546h26.902L91.8,213.999c-18.224-13.017-72.027-59.01-45.993-124.963    c55.539,54.671,108.475,79.837,203.932,97.193l10.414,1.736v-24.298c0-53.803,41.654-98.061,93.722-98.929    c19.959-0.868,52.936,17.356,62.481,22.563c5.207,2.603,10.414,3.471,15.62,1.736c13.017-4.339,28.637-10.414,45.993-17.356    c-7.81,13.017-18.224,25.166-32.108,36.448c-3.471,2.603-4.339,7.81-2.603,12.149c1.736,4.339,6.942,6.075,11.281,4.339    l33.844-11.281C482.308,124.616,472.762,137.633,456.274,143.707z" transform="matrix(0.06569016485713317 -0.028152928771191344 0.028152928771191344 0.06569016485713317 3.0150708439220892 107.37886794498164)" id="L1_0"/><g transform="matrix(0.06720668077468872 0 0 0.06720668077468872 101.91317619838418 20.93874865852888)" id="L1_2"><path d="M252.321-1C113.83-1,1.357,111.472,1.357,249.125c0,43.646,11.751,85.613,33.574,124.223L-2,505.964l135.134-36.092     c39.449,20.984,80.577,32.734,119.187,32.734c136.813,0,252.643-115.83,252.643-253.482S391.652-1,252.321-1z M252.321,485.82     c-36.931,0-76.38-11.751-114.151-32.734l-3.357-1.679L21.502,482.462L52.557,370.83l-1.679-3.357     c-20.984-36.092-32.734-77.22-32.734-118.348c0-128.42,104.918-233.338,234.177-233.338     c130.098,0,235.856,104.918,235.856,233.338S379.902,485.82,252.321,485.82z"/><path d="M252.321,40.967c-114.99,0-208.997,93.167-208.997,208.157c0,41.128,11.751,79.738,32.734,114.151l3.357,4.197     L56.754,447.21l82.256-20.984l4.197,2.518c34.413,20.984,72.184,31.895,109.115,31.895c115.83,0,210.675-94.846,210.675-211.515     C462.997,134.134,368.151,40.967,252.321,40.967z M251.482,444.692c-33.574,0-67.987-10.911-99.882-30.216l-10.072-6.715     l-61.272,15.108l16.787-58.754l-6.715-10.911c-20.144-31.056-30.216-67.148-30.216-104.079     c0-104.918,86.452-191.37,192.21-191.37c106.597,0,193.889,86.452,193.889,191.37     C446.21,356.561,358.918,443.852,251.482,444.692z"/><path d="M378.223,295.289l-52.879-24.341c-7.554-3.357-15.108-0.839-20.144,5.036l-20.144,26.02     c-15.108-5.875-57.075-24.341-81.416-69.666l18.466-21.823c4.197-5.036,5.036-11.751,2.518-17.626l-22.662-53.718     c-2.518-5.875-7.554-10.072-14.269-10.072l-15.948-0.839c-6.715,0-14.269,1.679-19.305,6.715     c-7.554,6.715-21.823,20.984-26.02,40.289c-5.875,27.698,3.357,60.433,26.859,92.328     c14.269,20.144,57.915,79.738,141.849,103.239c8.393,2.518,16.787,3.357,24.341,3.357c14.269,0,27.698-4.197,39.449-10.911     c13.43-8.393,22.662-22.662,26.02-37.771l2.518-11.751C389.134,306.2,384.938,298.646,378.223,295.289z M367.311,321.308     c-2.518,10.911-9.233,20.984-18.466,26.859c-14.269,9.233-31.056,10.911-49.521,5.875     c-78.059-21.823-119.187-78.059-132.616-96.525c-20.144-27.698-28.538-56.236-23.502-78.898     c3.357-15.108,14.269-26.02,20.984-31.895c1.679-1.679,4.197-2.518,6.715-2.518l16.787,1.679l22.662,52.879l-20.144,22.662     c-3.357,4.197-4.197,10.911-1.679,15.948c27.698,53.718,78.059,74.702,93.167,79.738c5.875,1.679,11.751,0,15.948-5.036     l20.144-26.859l52.879,24.341L367.311,321.308z"/></g><g transform="matrix(0.08206531405448914 0 0 0.08206531405448914 208.95615741610527 192.97371850907803)" id="L1_3"><path d="M236.227,178.2c0-18.773-15.36-34.133-34.133-34.133s-34.133,15.36-34.133,34.133s15.36,34.133,34.133,34.133     S236.227,196.973,236.227,178.2z M185.027,178.2c0-9.387,7.68-17.067,17.067-17.067s17.067,7.68,17.067,17.067     s-7.68,17.067-17.067,17.067S185.027,187.587,185.027,178.2z"/><path d="M304.493,144.067c-18.773,0-34.133,15.36-34.133,34.133s15.36,34.133,34.133,34.133c18.773,0,34.133-15.36,34.133-34.133     S323.267,144.067,304.493,144.067z M304.493,195.267c-9.387,0-17.067-7.68-17.067-17.067s7.68-17.067,17.067-17.067     c9.387,0,17.067,7.68,17.067,17.067S313.88,195.267,304.493,195.267z"/><path d="M196.12,231.96c-3.413,3.413-3.413,8.533,0,11.947c11.947,11.947,34.133,19.627,57.173,19.627     c23.04,0,45.227-7.68,57.173-19.627c3.413-3.413,3.413-8.533,0-11.947s-8.533-3.413-11.947,0     c-6.827,6.827-22.187,14.507-45.227,14.507c-23.04,0-38.4-7.68-45.227-14.507C204.653,228.547,199.533,228.547,196.12,231.96z"/><path d="M393.24,99.693c-9.387,0-19.627,3.413-27.307,8.533c-30.593-18.19-67.595-29.971-100.915-32.238l17.288-59.069     l49.01,14.415c-0.795,3.3-1.223,6.757-1.223,10.332c0,23.893,18.773,42.667,42.667,42.667s42.667-18.773,42.667-42.667     C415.427,17.773,396.653-1,372.76-1c-14.205,0-26.6,6.637-34.317,17.039l-54.43-15.332c-7.68-1.707-15.36,2.56-17.92,10.24     l-19.385,65.133c-34.109,2.054-71.386,13.662-102.642,31.294C136.387,101.4,127,98.84,116.76,98.84     c-27.307,0-49.493,22.187-49.493,49.493c0,15.36,7.68,29.867,19.627,39.253c0,2.56,0,5.12,0,7.68     c0,32.427,18.773,61.44,52.053,83.627c5.973,4.267,11.947,7.68,18.773,11.093c-18.773,15.36-29.867,39.253-29.867,66.56     c0,36.693,20.48,68.267,50.347,78.507c0.853,1.707,0.853,2.56,1.707,4.267c-26.453,4.267-46.08,23.04-46.08,46.08     c0,3.413,0.853,10.24,2.56,15.36c1.707,5.973,7.68,10.24,14.507,10.24H357.4c6.827,0,12.8-4.267,13.653-11.093     c1.707-3.413,0.853-8.533,0.853-11.947c0-0.853,0-1.707,0-2.56c0-23.04-17.92-40.96-41.813-45.227     c0.853-1.707,0.853-2.56,1.707-4.267c29.867-10.24,50.347-41.813,50.347-78.507c0-26.453-11.947-51.2-29.867-66.56     c6.827-3.413,12.8-6.827,18.773-11.093c33.28-22.187,52.053-51.2,52.053-83.627c0-2.56,0-5.12,0-7.68     c11.947-9.387,19.627-23.893,19.627-39.253C442.733,121.88,420.547,99.693,393.24,99.693z M372.76,16.067     c14.507,0,25.6,11.093,25.6,25.6c0,14.507-11.093,25.6-25.6,25.6c-14.507,0-25.6-11.093-25.6-25.6     C347.16,27.16,358.253,16.067,372.76,16.067z M409.453,178.2c-3.413,1.707-5.12,5.12-4.267,8.533     c0.853,3.413,0.853,6.827,0.853,10.24c0,25.6-16.213,50.347-44.373,69.12c-9.387,5.973-19.627,11.093-30.72,15.36     c-2.56,0.853-5.12,4.267-5.12,7.68c0,3.413,1.707,5.973,5.12,7.68c20.48,9.387,34.133,34.133,34.133,60.587     c0,29.867-17.92,56.32-41.813,63.147c-2.56,0.853-5.12,3.413-5.973,5.973c-1.707,5.973-4.267,11.947-6.827,17.92     c-0.853,2.56-0.853,5.973,0.853,8.533c1.707,2.56,5.12,3.413,7.68,3.413c0.853,0,1.707,0,2.56,0     c19.627,0,34.133,11.947,34.133,29.013c0,1.707,0,2.56,0,4.267c0,0.853,0,2.56,0,4.267H151.747c0-2.56-0.853-6.827-0.853-8.533     c0-16.213,17.067-29.013,34.133-28.16c0.853,0,2.56,0,3.413,0c3.413,0,5.973-0.853,7.68-3.413s1.707-5.973,0.853-8.533     c-2.56-5.973-5.12-12.8-6.827-18.773c-0.853-3.413-3.413-5.12-5.973-5.973c-23.893-5.973-41.813-33.28-41.813-63.147     c0-26.453,13.653-51.2,34.133-60.587c3.413-0.853,5.12-4.267,5.12-7.68c0-3.413-1.707-6.827-5.12-7.68     c-11.093-4.267-21.333-9.387-30.72-15.36c-29.013-18.773-44.373-42.667-44.373-69.12c0-3.413,0-6.827,0.853-10.24     c0-3.413-0.853-6.827-4.267-8.533c-9.387-5.12-15.36-16.213-15.36-27.307c0-17.92,14.507-32.427,32.427-32.427     c7.68,0,15.36,3.413,21.333,8.533c2.56,2.56,6.827,2.56,10.24,0.853c31.573-20.48,70.827-32.427,104.96-33.28h8.533     c33.28,1.707,70.827,13.653,100.693,33.28c3.413,1.707,7.68,1.707,10.24-0.853c5.973-5.973,13.653-8.533,21.333-8.533     c17.92,0,32.427,14.507,32.427,32.427C424.813,161.987,418.84,172.227,409.453,178.2z"/><path d="M309.613,310.467c-1.707-0.853-4.267-1.707-6.827-0.853c-30.72,9.387-65.707,9.387-95.573,0     c-2.56-0.853-5.12-0.853-6.827,0.853c-2.56,1.707-4.267,3.413-4.267,5.973c-1.707,11.093-2.56,23.893-2.56,35.84     c0,53.76,17.92,99.84,44.373,115.2c1.707,0.853,2.56,0.853,4.267,0.853h25.6c1.707,0,3.413,0,4.267-0.853     c26.453-14.507,44.373-61.44,44.373-115.2c0-11.947-0.853-23.893-2.56-35.84C313.027,313.88,311.32,312.173,309.613,310.467z      M266.093,451.267H244.76c-19.627-12.8-33.28-54.613-34.133-99.84c0-7.68,0.853-16.213,1.707-23.893     c27.307,6.827,58.027,6.827,85.333,0c0.853,7.68,1.707,15.36,1.707,23.893C299.373,396.653,285.72,438.467,266.093,451.267z"/></g><g transform="matrix(0.062241548563974645 0.04045700811959142 -0.04045700811959142 0.062241548563974645 120.42313643723192 269.70914392917473)" id="L1_4"><path d="M414.897,247.172v88.276c0,8.828-11.476,17.655-22.069,17.655c-10.593,0-22.069-8.828-22.069-17.655V240.11     l-52.083,31.779l-45.021-33.545v92.69c0,64.441,57.379,119.172,123.586,119.172c64.441,0,114.759-52.966,114.759-120.055v-82.979     H414.897z M494.345,330.152c0,58.262-41.49,102.4-97.103,102.4c-57.379,0-105.931-46.786-105.931-101.517v-57.379l25.6,19.421     l36.193-21.186v63.559c0,20.303,21.186,35.31,39.724,35.31s39.724-15.007,39.724-35.31v-70.621h61.793V330.152z"/><path d="M273.655,207.448l43.255,32.662l53.848-31.779v-37.076C368.993,106.814,321.324,61.793,256,61.793     s-112.11,45.021-114.759,108.579v158.897c0,8.828-11.476,15.007-22.069,15.007c-10.593,0-22.069-7.062-22.069-15.007v-82.097H0     v82.979c0,65.324,56.497,120.055,123.586,120.055c66.207,0,122.703-53.848,123.586-118.29V174.786     c0-15.89,7.945-15.89,11.476-15.89c14.124,0,15.007,12.359,15.007,15.89V207.448z M258.648,141.241     c-17.655,0-29.131,13.241-29.131,33.545v157.131c-0.883,54.731-49.434,100.634-105.931,100.634     c-57.379,0-105.931-46.786-105.931-102.4v-65.324h61.793v64.441c0,20.303,20.303,32.662,39.724,33.545     c19.421,0,39.724-12.359,39.724-32.662V171.255c1.766-53.848,41.49-91.807,97.103-91.807s95.338,37.959,97.103,91.807v26.483     l-34.428,21.186l-27.365-20.303v-23.834C291.31,155.366,278.069,141.241,258.648,141.241z"/></g><path d="M400.64,393.387c-13.653,9.387-25.6,14.507-44.373,17.92c-11.093,2.56-20.48,2.56-29.867,1.707    c-9.387-0.853-18.773-4.267-26.453-9.387c-5.973-4.267-9.387-11.093-11.093-21.333s-2.56-20.48-2.56-29.867    c0-3.413,0-82.773,0-130.56h110.933V128H286.293V0H198.4l-0.853,11.093c0,2.56,0,5.12-0.853,7.68    c-3.413,17.92-6.827,32.427-12.8,44.373c-12.8,28.16-34.133,49.493-62.293,62.293c-4.267,2.56-7.68,3.413-11.947,5.12    l-11.093,4.267v87.04h51.2v34.987c0,43.52,0,86.187,0,129.707c0,13.653,0.853,25.6,3.413,35.84    c2.56,14.507,10.24,29.013,23.893,43.52c13.653,15.36,32.427,27.307,52.053,34.987c11.947,4.267,23.893,7.68,37.547,9.387    c7.68,0.853,15.36,1.707,23.04,1.707c0.853,0,10.24,0,15.36,0l7.68,0c22.187-0.853,45.227-5.973,71.68-16.213    c3.413-1.707,6.827-2.56,9.387-3.413c4.267-1.707,9.387-3.413,15.36-5.973l4.267-2.56v-98.987L400.64,393.387z M396.373,473.6    c-2.56,0.853-5.973,1.707-8.533,2.56c-2.56,0.853-5.973,1.707-10.24,3.413c-24.747,10.24-45.227,14.507-66.56,15.36h-5.973    c-4.267,0-13.653,0-14.507,0c-6.827,0-14.507-0.853-21.333-1.707c-12.8-1.707-23.893-4.267-34.133-8.533    c-17.92-5.973-34.133-17.067-46.08-29.867c-11.093-12.8-17.92-23.893-19.627-34.987c-1.707-9.387-2.56-20.48-2.56-33.28    c0-43.52,0-86.187,0-129.707V204.8h-51.2v-58.88c4.267-0.853,8.533-2.56,12.8-5.12c31.573-14.507,55.467-38.4,70.827-70.827    c5.973-13.653,10.24-29.013,13.653-48.64c0-0.853,0.853-2.56,0.853-4.267h55.467v128h110.08V204.8H268.373v8.533    c0,5.973,0,135.68,0,139.947c0,9.387,0.853,21.333,2.56,32.427c2.56,14.507,8.533,25.6,18.773,32.427s21.333,10.24,34.133,11.947    c11.093,1.707,23.04,0.853,34.987-1.707c13.653-2.56,24.747-5.12,37.547-11.947V473.6z" transform="matrix(0.043255697258610164 -0.03327361332717226 0.03327361332717226 0.043255697258610164 219.408566223355 116.44462237854273)" id="L1_5"/><path d="M373.508,201.443h94.007l0.839-6.715c5.875-33.574,5.875-53.718,5.875-90.649v-5.036C474.229,34.413,412.118,0,354.203,0    c-30.216,0-58.754,9.233-78.898,26.02c-23.502,20.144-36.092,48.682-36.092,83.934c0,101.561,53.718,156.118,101.561,184.656    c-33.574,61.272-78.059,101.561-93.167,114.151C99.882,286.216,113.311,78.898,113.311,76.38l0.839-9.233H29.377v8.393    C30.216,256,94.007,401.207,207.318,485.98c1.679,0.839,3.357,1.679,4.197,2.518c17.626,13.43,23.502,15.108,41.128,15.108    c1.679,0,3.357,0,5.036,0h7.554c27.698-1.679,82.256-59.593,144.367-154.439c5.036-8.393,10.072-15.108,14.269-22.662    c24.341,5.036,41.128,5.036,41.967,5.036h8.393v-78.059l-7.554-0.839C341.613,240.892,331.541,140.17,331.541,109.115    c0-14.269,16.787-25.18,32.734-26.02c5.036,0,11.751,1.679,16.787,6.715c5.036,5.036,7.554,12.59,7.554,23.502    c-0.839,31.895-5.036,47.843-11.751,74.702L373.508,201.443z M363.436,67.148c-22.662,0-48.682,17.626-48.682,41.967    c0,33.574,10.911,142.689,142.689,159.475v45.325c-8.393,0-20.984-1.679-36.092-5.036l-5.875-1.679l-3.357,5.036    c-5.036,8.393-10.911,17.626-16.787,26.859c-65.469,99.882-114.99,146.885-131.777,147.725H256c-17.626,0-19.305,0-34.413-11.751    c-0.839-0.839-2.518-1.679-4.197-3.357C108.275,391.134,48.682,256.839,46.164,83.934h50.361    c-0.839,42.807,3.357,229.141,146.046,342.452l5.036,4.197l5.036-4.197c2.518-1.679,63.79-49.521,106.597-130.938l4.197-7.554    l-7.554-4.197C289.574,247.607,256,188.852,256,109.954c0-29.377,10.072-53.718,30.216-70.505    c17.626-14.269,41.128-22.662,67.987-22.662c50.361,0,103.239,28.538,102.4,81.416v5.036c0,34.413,0,52.879-4.197,81.416h-57.915    c5.875-22.662,10.072-40.289,10.072-70.505c0-15.108-4.197-26.859-12.59-35.252C385.259,71.344,374.348,67.148,363.436,67.148z" transform="matrix(0.03276283298726263 -0.02680595326975611 0.02680595326975611 0.03276283298726263 287.00846622717 297.473806406949)" id="L1_8"/><g transform="matrix(0.04296086407204345 0.02974213528042317 -0.02974213528042317 0.04296086407204345 36.54914997610081 199.3286765974808)" id="L1_9"><path d="M318.147,212.333H152.6v76.8h83.627c-11.947,31.573-38.4,51.2-73.387,51.2c-46.08,0-87.04-40.107-87.04-85.333     s40.96-85.333,87.04-85.333c22.187,0,40.96,6.827,54.613,20.48l5.973,5.973l57.173-57.173l-6.827-5.973     C247.32,106.52,208.92,92.867,162.84,92.867C70.68,92.867-1,163.693-1,255s71.68,162.133,163.84,162.133     c84.48,0,145.067-49.493,156.16-129.707c1.707-10.24,2.56-21.333,2.56-32.427c0-12.8-0.853-25.6-2.56-35.84L318.147,212.333z      M302.787,284.867c-11.093,72.533-63.147,115.2-139.947,115.2c-81.92,0-146.773-64-146.773-145.067S80.92,109.933,162.84,109.933     c38.4,0,69.12,10.24,93.013,29.013l-33.28,33.28c-15.36-12.8-35.84-19.627-59.733-19.627c-56.32,0-104.107,46.933-104.107,102.4     s47.787,102.4,103.253,102.4c46.08,0,82.773-29.867,93.013-75.093l2.56-10.24h-87.893V229.4H303.64     c0.853,7.68,1.707,17.067,1.707,25.6C305.347,265.24,304.493,275.48,302.787,284.867z"/><path d="M459.8,212.333v-51.2h-59.733v51.2h-51.2v59.733h51.2v51.2H459.8v-51.2H511v-59.733H459.8z M493.933,255h-51.2v51.2     h-25.6V255h-51.2v-25.6h51.2v-51.2h25.6v51.2h51.2V255z"/></g><path d="M468.333-1H41.667C17.773-1-1,17.773-1,41.667v426.667C-1,492.227,17.773,511,41.667,511h196.267h102.4h128    C492.227,511,511,492.227,511,468.333V41.667C511,17.773,492.227-1,468.333-1z M255,493.933V323.267h-68.267V255H255v-59.733    c0-48.64,37.547-89.6,85.333-93.867h76.8v68.267h-68.267c-14.507,0-25.6,11.093-25.6,25.6V255H408.6v68.267h-85.333v170.667H255z     M493.933,468.333c0,14.507-11.093,25.6-25.6,25.6h-128v-153.6h85.333v-102.4h-85.333v-42.667c0-5.12,3.413-8.533,8.533-8.533    H434.2v-102.4h-94.72c-57.173,5.12-101.547,53.76-101.547,110.933v42.667h-68.267v102.4h68.267v153.6H41.667    c-14.507,0-25.6-11.093-25.6-25.6V41.667c0-14.507,11.093-25.6,25.6-25.6h426.667c14.507,0,25.6,11.093,25.6,25.6V468.333z" transform="matrix(0.06642099026918787 -0.011070165077131714 0.011070165077131714 0.06642099026918787 261.1424160590153 16.799270413429653)" id="L1_10"/><path d="M256,0C115.2,0,0,115.2,0,256c0,101.547,60.587,193.707,153.6,234.667l11.093,5.973l-0.853-13.653    c-0.853-21.333,0.853-39.253,4.267-54.613c4.267-20.48,31.573-134.827,31.573-134.827l0.853-3.413l-1.707-2.56    c0,0-6.827-13.653-6.827-34.987c0-30.72,17.067-55.467,39.253-55.467c23.04,0,24.747,22.187,24.747,29.013    c0,12.8-5.973,30.72-11.947,50.347c-3.413,11.093-7.68,23.04-10.24,34.987c-3.413,14.507,0,29.013,8.533,40.107    c9.387,11.093,23.893,17.92,39.253,17.92c49.493,0,87.04-59.733,87.04-139.947c0-62.293-44.373-103.253-111.787-103.253    c-74.24,0-130.56,54.613-130.56,127.147c0,21.333,5.973,39.253,17.92,53.76c2.56,2.56,2.56,3.413,2.56,3.413    c0,0.853,0,0.853-0.853,3.413v1.707c-0.853,5.12-3.413,13.653-4.267,17.92c0,0.853,0,0.853,0,0.853H140.8    c-29.013-11.947-45.227-43.52-45.227-87.04c0-100.693,98.133-145.92,168.107-145.92c93.013,0,148.48,67.413,148.48,133.12    c0,94.72-51.2,161.28-124.587,161.28c-24.747,0-46.08-13.653-52.907-26.453l-10.24-19.627l-5.12,21.333    c0,0-14.507,56.32-17.067,67.413c-4.267,14.507-11.947,31.573-23.893,50.347l-5.973,9.387l11.093,3.413    C207.36,508.587,231.253,512,256,512c140.8,0,256-115.2,256-256S396.8,0,256,0z M256,494.933c-19.627,0-38.4-2.56-57.173-6.827    c9.387-16.213,16.213-31.573,20.48-43.52c2.56-7.68,9.387-34.133,13.653-52.053c13.653,11.947,35.84,20.48,56.32,20.48    c81.92,0,141.653-75.093,141.653-178.347c0-73.387-62.293-150.187-165.547-150.187c-70.827,0-114.347,29.013-138.24,53.76    c-29.867,29.867-46.933,69.973-46.933,109.227c0,49.493,21.333,87.893,56.32,102.4c5.12,2.56,10.24,2.56,14.507,0    c5.12-2.56,7.68-6.827,9.387-11.947c0.853-4.267,2.56-13.653,4.267-18.773v-1.707c2.56-9.387,0.853-14.507-5.12-21.333    c-10.24-11.093-14.507-24.747-14.507-42.667c0-71.68,58.88-110.08,113.493-110.08c58.88,0,94.72,33.28,94.72,86.187    c0,69.973-29.867,122.88-69.973,122.88c-10.24,0-19.627-4.267-25.6-11.947c-5.12-6.827-7.68-16.213-5.12-25.6    c2.56-11.093,5.973-23.04,9.387-34.133c6.827-20.48,12.8-40.107,12.8-55.467c0-27.307-17.067-46.08-41.813-46.08    c-31.573,0-56.32,31.573-56.32,72.533c0,19.627,5.12,34.133,7.68,40.107c-4.267,17.92-27.307,114.347-31.573,132.267    c-3.413,12.8-5.12,28.16-5.12,45.227C68.267,428.373,17.067,346.453,17.067,256c0-131.413,107.52-238.933,238.933-238.933    S494.933,124.587,494.933,256S387.413,494.933,256,494.933z" transform="matrix(0.06989104044464667 0.025414923924094016 -0.025414923924094016 0.06989104044464667 115.61411417073852 120.60167312160239)" id="L1_11"/></defs><g fi:class="KUsePattern"><pattern id="pattern_L1_0" width="350" height="350" patternUnits="userSpaceOnUse"><use xlink:href="#L1_0" x="-350" y="-350"/><use xlink:href="#L1_0" x="0" y="-350"/><use xlink:href="#L1_0" x="350" y="-350"/><use xlink:href="#L1_0" x="-350" y="0"/><use xlink:href="#L1_0" x="0" y="0"/><use xlink:href="#L1_0" x="350" y="0"/><use xlink:href="#L1_0" x="-350" y="350"/><use xlink:href="#L1_0" x="0" y="350"/><use xlink:href="#L1_0" x="350" y="350"/></pattern><rect x="0" y="0" width="100%" height="100%" fill="url(#pattern_L1_0)"/></g><g fi:class="KUsePattern"><pattern id="pattern_L1_2" width="350" height="350" patternUnits="userSpaceOnUse"><use xlink:href="#L1_2" x="-350" y="-350"/><use xlink:href="#L1_2" x="0" y="-350"/><use xlink:href="#L1_2" x="350" y="-350"/><use xlink:href="#L1_2" x="-350" y="0"/><use xlink:href="#L1_2" x="0" y="0"/><use xlink:href="#L1_2" x="350" y="0"/><use xlink:href="#L1_2" x="-350" y="350"/><use xlink:href="#L1_2" x="0" y="350"/><use xlink:href="#L1_2" x="350" y="350"/></pattern><rect x="0" y="0" width="100%" height="100%" fill="url(#pattern_L1_2)"/></g><g fi:class="KUsePattern"><pattern id="pattern_L1_3" width="350" height="350" patternUnits="userSpaceOnUse"><use xlink:href="#L1_3" x="-350" y="-350"/><use xlink:href="#L1_3" x="0" y="-350"/><use xlink:href="#L1_3" x="350" y="-350"/><use xlink:href="#L1_3" x="-350" y="0"/><use xlink:href="#L1_3" x="0" y="0"/><use xlink:href="#L1_3" x="350" y="0"/><use xlink:href="#L1_3" x="-350" y="350"/><use xlink:href="#L1_3" x="0" y="350"/><use xlink:href="#L1_3" x="350" y="350"/></pattern><rect x="0" y="0" width="100%" height="100%" fill="url(#pattern_L1_3)"/></g><g fi:class="KUsePattern"><pattern id="pattern_L1_4" width="350" height="350" patternUnits="userSpaceOnUse"><use xlink:href="#L1_4" x="-350" y="-350"/><use xlink:href="#L1_4" x="0" y="-350"/><use xlink:href="#L1_4" x="350" y="-350"/><use xlink:href="#L1_4" x="-350" y="0"/><use xlink:href="#L1_4" x="0" y="0"/><use xlink:href="#L1_4" x="350" y="0"/><use xlink:href="#L1_4" x="-350" y="350"/><use xlink:href="#L1_4" x="0" y="350"/><use xlink:href="#L1_4" x="350" y="350"/></pattern><rect x="0" y="0" width="100%" height="100%" fill="url(#pattern_L1_4)"/></g><g fi:class="KUsePattern"><pattern id="pattern_L1_5" width="350" height="350" patternUnits="userSpaceOnUse"><use xlink:href="#L1_5" x="-350" y="-350"/><use xlink:href="#L1_5" x="0" y="-350"/><use xlink:href="#L1_5" x="350" y="-350"/><use xlink:href="#L1_5" x="-350" y="0"/><use xlink:href="#L1_5" x="0" y="0"/><use xlink:href="#L1_5" x="350" y="0"/><use xlink:href="#L1_5" x="-350" y="350"/><use xlink:href="#L1_5" x="0" y="350"/><use xlink:href="#L1_5" x="350" y="350"/></pattern><rect x="0" y="0" width="100%" height="100%" fill="url(#pattern_L1_5)"/></g><g fi:class="KUsePattern"><pattern id="pattern_L1_8" width="350" height="350" patternUnits="userSpaceOnUse"><use xlink:href="#L1_8" x="-350" y="-350"/><use xlink:href="#L1_8" x="0" y="-350"/><use xlink:href="#L1_8" x="350" y="-350"/><use xlink:href="#L1_8" x="-350" y="0"/><use xlink:href="#L1_8" x="0" y="0"/><use xlink:href="#L1_8" x="350" y="0"/><use xlink:href="#L1_8" x="-350" y="350"/><use xlink:href="#L1_8" x="0" y="350"/><use xlink:href="#L1_8" x="350" y="350"/></pattern><rect x="0" y="0" width="100%" height="100%" fill="url(#pattern_L1_8)"/></g><g fi:class="KUsePattern"><pattern id="pattern_L1_9" width="350" height="350" patternUnits="userSpaceOnUse"><use xlink:href="#L1_9" x="-350" y="-350"/><use xlink:href="#L1_9" x="0" y="-350"/><use xlink:href="#L1_9" x="350" y="-350"/><use xlink:href="#L1_9" x="-350" y="0"/><use xlink:href="#L1_9" x="0" y="0"/><use xlink:href="#L1_9" x="350" y="0"/><use xlink:href="#L1_9" x="-350" y="350"/><use xlink:href="#L1_9" x="0" y="350"/><use xlink:href="#L1_9" x="350" y="350"/></pattern><rect x="0" y="0" width="100%" height="100%" fill="url(#pattern_L1_9)"/></g><g fi:class="KUsePattern"><pattern id="pattern_L1_10" width="350" height="350" patternUnits="userSpaceOnUse"><use xlink:href="#L1_10" x="-350" y="-350"/><use xlink:href="#L1_10" x="0" y="-350"/><use xlink:href="#L1_10" x="350" y="-350"/><use xlink:href="#L1_10" x="-350" y="0"/><use xlink:href="#L1_10" x="0" y="0"/><use xlink:href="#L1_10" x="350" y="0"/><use xlink:href="#L1_10" x="-350" y="350"/><use xlink:href="#L1_10" x="0" y="350"/><use xlink:href="#L1_10" x="350" y="350"/></pattern><rect x="0" y="0" width="100%" height="100%" fill="url(#pattern_L1_10)"/></g><g fi:class="KUsePattern"><pattern id="pattern_L1_11" width="350" height="350" patternUnits="userSpaceOnUse"><use xlink:href="#L1_11" x="-350" y="-350"/><use xlink:href="#L1_11" x="0" y="-350"/><use xlink:href="#L1_11" x="350" y="-350"/><use xlink:href="#L1_11" x="-350" y="0"/><use xlink:href="#L1_11" x="0" y="0"/><use xlink:href="#L1_11" x="350" y="0"/><use xlink:href="#L1_11" x="-350" y="350"/><use xlink:href="#L1_11" x="0" y="350"/><use xlink:href="#L1_11" x="350" y="350"/></pattern><rect x="0" y="0" width="100%" height="100%" fill="url(#pattern_L1_11)"/></g></svg>