<?xml version="1.0" encoding="utf-8"?>
<!-- Generator: Adobe Illustrator 18.0.0, SVG Export Plug-In . SVG Version: 6.00 Build 0)  -->
<!DOCTYPE svg PUBLIC "-//W3C//DTD SVG 1.1//EN" "http://www.w3.org/Graphics/SVG/1.1/DTD/svg11.dtd">
<svg version="1.1" id="Layer_1" xmlns="http://www.w3.org/2000/svg" xmlns:xlink="http://www.w3.org/1999/xlink" x="0px" y="0px"
	 viewBox="0 0 300 300" enable-background="new 0 0 300 300" xml:space="preserve">
<polygon fill="#F05134" points="150,4.8 150,4.8 150,4.8 14.8,53 35.4,231.8 150,295.2 150,295.2 150,295.2 264.6,231.8 285.2,53 
	"/>
<polygon fill="#E73A28" points="150,4.8 150,37 150,36.9 150,184 150,184 150,295.2 150,295.2 264.6,231.8 285.2,53 "/>
<path fill="#FFFFFF" d="M150,65.1c-46,0-83.4,37.3-83.4,83.4c0,46,37.3,83.4,83.4,83.4c46,0,83.4-37.3,83.4-83.4
	C233.4,102.5,196,65.1,150,65.1z"/>
<path fill="#F05134" d="M207.7,152.4c7.9-2.7,16.4-4.5,25.7-5.3c0-1.5-0.1-3-0.2-4.5c-9.9,0.9-18.7,2.8-26.5,5.4
	c-2.1-9-4.8-17-7.9-24.1c8.3-3.4,16.8-7.7,25.8-12.9c-0.7-1.3-1.4-2.7-2.1-3.9c-8.8,5.1-17.3,9.3-25.5,12.7
	c-6.1-12.8-13.5-22.5-20.6-29.9c-2.2-2.2-4.3-4.3-6.5-6.1c8.1-2.2,16.8-3.9,25.9-5c-2-1.3-4-2.5-6.2-3.7c-7.2,1.1-14,2.5-20.3,4.3
	c1.5-4.3,3-8,4.3-10.9c-1.5-0.4-2.9-0.8-4.4-1.2c-1.4,3.2-3.1,7.3-4.7,12.1c-9-6.9-17.5-11.2-23.8-13.8c-3.1,0.3-6.1,0.9-9.1,1.5
	c4.9,1.5,16.4,5.6,29,14.9c-17,5.8-30.3,13.9-40.8,22.9c-6.5-12.8-13.5-21.7-16.7-25.4c-1.2,0.8-2.5,1.7-3.6,2.6
	c2.9,3.4,10.3,12.6,16.9,25.9c-6.4,6-11.6,12.3-15.9,18.6c-11.7-3.8-20.6-8.8-26.3-12.6c-0.6,1.4-1.2,2.8-1.8,4.2
	c5.8,3.8,14.4,8.5,25.6,12.3c-2.6,4.2-4.8,8.3-6.7,12.4c-2.4,5.1-4.3,10.1-5.8,15C76.4,143.6,71.8,130.7,70,125
	c-0.8,2.7-1.4,5.4-1.9,8.1c2.9,7.6,7.8,18.6,15.6,30.4c-3.2,11.5-4.3,21.7-4.7,28.6c1.3,2.2,2.8,4.3,4.3,6.3c0-5,0.5-16.3,3.8-30
	c1.4,2,2.9,3.9,4.5,5.9c7.1,8.8,16.6,18.2,28.8,26.2c-3,7-6.7,13.8-11.2,20.6c1.3,0.7,2.6,1.4,4,2.1c4.5-6.9,8.2-13.7,11-20.4
	c7.1,4.2,15,8,23.8,10.9c-2,7.5-2.8,13.9-3.2,17.9c1.5,0.1,3,0.1,4.5,0.2c0.4-3.8,1.2-9.7,3-16.7c11.4,3.3,24.2,5.3,38.6,5.3
	c0.5,0,0.9,0,1.4,0c2.5-1.4,4.8-3,7.1-4.7c-16.6,0.9-31.9-0.7-46-4.8c1.6-5.3,3.7-11,6.6-16.7c4.5-9.1,10.2-16.8,16.9-23.3
	c7.7,8.7,17.7,16.2,30,22.3c-0.1,5.5-0.4,11.2-0.8,17c1.7-1.5,3.3-3.1,4.8-4.7c0.2-3.5,0.4-6.9,0.5-10.2c1.9,0.9,3.9,1.7,5.9,2.5
	c0.9-1.2,1.8-2.5,2.6-3.8c-2.9-1.2-5.7-2.4-8.5-3.7C211.3,176.3,210,163.7,207.7,152.4z M166.8,87.2c2.1,1.8,4.2,3.8,6.2,5.9
	c8,8.2,14.5,17.7,19.7,28.4c-10.6,4.1-20.5,6.9-29.8,8.6C160.8,114.6,163.4,99.3,166.8,87.2z M162.4,86.1
	c-3.6,12.6-6.2,28.4-3.9,44.8c-10.5,1.6-20,1.9-28.6,1.4c-0.8-3.4-1.8-6.6-2.8-9.6c-1.7-4.9-3.5-9.5-5.5-13.7
	C132.9,99.1,146.5,91.4,162.4,86.1z M118.2,112.2c1.7,3.7,3.3,7.7,4.7,11.9c0.9,2.6,1.6,5.2,2.3,7.8c-6-0.6-11.4-1.6-16.2-2.7
	c-1.5-0.4-2.9-0.7-4.3-1.1C108.8,122.3,113.2,117,118.2,112.2z M122,196.4c-9.9-6.6-18.8-14.9-26.8-24.8c-2.4-3-4.6-5.9-6.6-8.9
	c1.7-5.8,3.9-11.9,6.8-18.1c2.1-4.5,4.4-8.7,6.9-12.7c1.8,0.5,3.6,1,5.5,1.5c5.5,1.3,11.7,2.4,18.6,3
	C130.9,156.9,129.4,177,122,196.4z M155.8,192.4c-3,6-5.2,11.8-6.8,17.2c-8.2-2.7-16-6.3-23.3-10.8c9-23.3,8.8-44.7,5.2-62.1
	c2.2,0.1,4.4,0.2,6.6,0.2c6.7,0,13.9-0.5,21.6-1.7c0.8,4,1.9,8,3.4,12c2.7,7.4,6.5,14.1,11.4,20.3
	C165.7,175.6,159.8,184.4,155.8,192.4z M177.3,164.6c-4.5-5.8-8-12-10.5-18.8c-1.4-3.7-2.4-7.5-3.1-11.3c9.6-1.8,20-4.7,31-8.9
	c3.3,7.5,5.9,15.5,7.8,24C192.4,153.6,184.1,158.8,177.3,164.6z M180.1,167.9c6.8-5.9,14.6-10.5,23.3-14c2.1,10.7,3.3,22.2,3.4,34.3
	C195.9,182.6,187,175.8,180.1,167.9z"/>
<g>
	<path fill="#E73928" d="M204.9,144.5c-3.6,0-6.5,2.9-6.5,6.5c0,3.6,2.9,6.5,6.5,6.5c3.6,0,6.5-2.9,6.5-6.5
		C211.5,147.4,208.5,144.5,204.9,144.5z"/>
	<path fill="#E73928" d="M176.8,160.8c-3.6,0-6.5,2.9-6.5,6.5c0,3.6,2.9,6.5,6.5,6.5c3.6,0,6.5-2.9,6.5-6.5S180.4,160.8,176.8,160.8
		z"/>
	<path fill="#E73928" d="M150.4,206.3c-3.6,0-6.5,2.9-6.5,6.5c0,3.6,2.9,6.5,6.5,6.5c3.6,0,6.5-2.9,6.5-6.5
		C156.9,209.2,154,206.3,150.4,206.3z"/>
	<path fill="#E73928" d="M123,192.9c-3.6,0-6.5,2.9-6.5,6.5c0,3.6,2.9,6.5,6.5,6.5c3.6,0,6.5-2.9,6.5-6.5
		C129.5,195.8,126.6,192.9,123,192.9z"/>
	<path fill="#E73928" d="M85.9,156.6c-3.6,0-6.5,2.9-6.5,6.5c0,3.6,2.9,6.5,6.5,6.5c3.6,0,6.5-2.9,6.5-6.5
		C92.4,159.5,89.5,156.6,85.9,156.6z"/>
	<path fill="#E73928" d="M101.4,122.7c-3.6,0-6.5,2.9-6.5,6.5c0,3.6,2.9,6.5,6.5,6.5c3.6,0,6.5-2.9,6.5-6.5
		C107.9,125.6,105,122.7,101.4,122.7z"/>
	<path fill="#E73928" d="M128.6,128.1c-3.6,0-6.5,2.9-6.5,6.5c0,3.6,2.9,6.5,6.5,6.5c3.6,0,6.5-2.9,6.5-6.5
		C135.1,131,132.2,128.1,128.6,128.1z"/>
	<path fill="#E73928" d="M118.7,101.6c-3.6,0-6.5,2.9-6.5,6.5s2.9,6.5,6.5,6.5c3.6,0,6.5-2.9,6.5-6.5
		C125.2,104.5,122.3,101.6,118.7,101.6z"/>
	<path fill="#E73928" d="M165.8,74c-4.5,0-8.2,3.7-8.2,8.2c0,4.5,3.7,8.2,8.2,8.2c4.5,0,8.2-3.7,8.2-8.2C174,77.7,170.4,74,165.8,74
		z"/>
	<path fill="#E73928" d="M161,126.6c-3.6,0-6.5,2.9-6.5,6.5c0,3.6,2.9,6.5,6.5,6.5c3.6,0,6.5-2.9,6.5-6.5
		C167.5,129.5,164.6,126.6,161,126.6z"/>
	<path fill="#E73928" d="M196.2,116.1c-3.6,0-6.5,2.9-6.5,6.5c0,3.6,2.9,6.5,6.5,6.5c3.6,0,6.5-2.9,6.5-6.5S199.8,116.1,196.2,116.1
		z"/>
	<path fill="#E73928" d="M208.9,184.7c-3.6,0-6.5,2.9-6.5,6.5c0,3.6,2.9,6.5,6.5,6.5c3.6,0,6.5-2.9,6.5-6.5
		C215.4,187.6,212.5,184.7,208.9,184.7z"/>
</g>
</svg>
