<?xml version="1.0" encoding="iso-8859-1"?>
<!-- Generator: Adobe Illustrator 19.0.0, SVG Export Plug-In . SVG Version: 6.00 Build 0)  -->
<svg version="1.1" id="Layer_1" xmlns="http://www.w3.org/2000/svg" xmlns:xlink="http://www.w3.org/1999/xlink" x="0px" y="0px"
	 viewBox="0 0 512 512" style="enable-background:new 0 0 512 512;" xml:space="preserve">
<circle style="fill:#862328;" cx="256" cy="256" r="256"/>
<path style="fill:#701B24;" d="M359.152,151.924c-50.922,3.653-103.777-22.602-151.421-4.53
	c-72.404,27.582-94.815,134.465-49.993,201.697c4.275,6.413,3.146,11.028-0.036,15.572l143.186,143.41
	c105.417-18.646,188.559-101.797,207.191-207.217L359.152,151.924z"/>
<path style="fill:#FFFFFF;" d="M402.472,260.294c2.389-83.62-65.293-152.024-148.652-150.811
	c-80.231,1.165-144.962,67.424-144.348,147.661c0.441,57.494,33.994,107.098,82.53,130.701c2.807,1.364,6.058-0.76,5.939-3.879
	c-0.353-9.426-0.048-19.506,1.836-27.607c1.86-7.977,9.142-38.828,13.933-59.094c2.331-9.868,2.613-20.113,0.736-30.075
	c-0.617-3.269-1.062-7.108-1.062-11.38c0-21.657,12.553-37.826,28.184-37.826c13.288,0,19.706,9.978,19.706,21.942
	c0,13.362-8.511,33.342-12.9,51.86c-3.67,15.501,7.775,28.144,23.064,28.144c27.684,0,48.962-29.189,48.962-71.327
	c0-37.292-26.798-63.364-65.06-63.364c-44.316,0-70.33,33.239-70.33,67.593c0,13.386,5.158,27.739,11.592,35.542
	c1.272,1.543,1.46,2.898,1.083,4.468c-1.183,4.92-3.81,15.498-4.327,17.663c-0.679,2.851-2.258,3.456-5.208,2.086
	c-19.454-9.056-31.618-37.495-31.618-60.344c0-49.131,35.699-94.253,102.914-94.253c54.032,0,96.023,38.502,96.023,89.959
	c0,53.677-33.849,96.88-80.827,96.88c-12.414,0-24.245-5.075-31.198-11.952c-2.141-2.115-5.756-1.152-6.52,1.757
	c-2.45,9.333-6.408,24.429-7.682,29.334c-2.296,8.833-7.137,19.118-11.992,28.076c-1.288,2.379,0.017,5.322,2.639,5.989
	c11.978,3.036,24.54,4.603,37.492,4.486C334.274,401.811,400.272,337.156,402.472,260.294L402.472,260.294z"/>
<g>
	<path style="fill:#D1D1D1;" d="M271.439,319.933c27.684,0,48.962-29.189,48.962-71.327c0-37.292-26.798-63.364-65.06-63.364
		c-0.809,0-1.596,0.034-2.393,0.057v36c5.579,3.898,8.326,10.831,8.326,18.63c0,9.469-4.274,22.266-8.326,35.507v36.397
		C257.267,316.833,263.878,319.933,271.439,319.933z"/>
	<path style="fill:#D1D1D1;" d="M253.819,109.484c-0.291,0.003-0.579,0.029-0.871,0.034v48.63c2.132-0.095,4.296-0.15,6.497-0.15
		c54.032,0,96.023,38.502,96.023,89.959c0,53.677-33.849,96.88-80.827,96.88c-7.821,0-15.41-2.017-21.694-5.229v62.886
		c1.474,0.031,2.951,0.045,4.436,0.031c76.89-0.715,142.886-65.371,145.086-142.231C404.861,176.674,337.177,108.27,253.819,109.484
		z"/>
</g>
<g>
</g>
<g>
</g>
<g>
</g>
<g>
</g>
<g>
</g>
<g>
</g>
<g>
</g>
<g>
</g>
<g>
</g>
<g>
</g>
<g>
</g>
<g>
</g>
<g>
</g>
<g>
</g>
<g>
</g>
</svg>
