<?xml version="1.0" encoding="iso-8859-1"?>
<!-- Generator: Adobe Illustrator 19.0.0, SVG Export Plug-In . SVG Version: 6.00 Build 0)  -->
<svg version="1.1" id="Layer_1" xmlns="http://www.w3.org/2000/svg" xmlns:xlink="http://www.w3.org/1999/xlink" x="0px" y="0px"
	 viewBox="0 0 502 502" style="enable-background:new 0 0 502 502;" xml:space="preserve">
<g>
	<g>
		<rect x="5" y="5" style="fill:#C9353D;" width="492" height="492"/>
		<path d="M497,502H5c-2.761,0-5-2.239-5-5V5c0-2.761,2.239-5,5-5h492c2.761,0,5,2.239,5,5v492C502,499.761,499.761,502,497,502z
			 M10,492h482V10H10V492z"/>
	</g>
	<g>
		<path style="fill:#FFFFFF;" d="M180.816,380.961c-2.108,9.726-1.718,19.999-2.414,30.026c-0.136,1.919-0.022,3.858-0.022,6.415
			l0,0C98.083,383.845,45.816,288.221,79.058,191.101C111.941,95.025,218.312,44.715,314.093,80.286
			c96.056,35.667,143.561,141.653,106.324,236.664c-38.549,98.365-141.9,133.161-219.39,108.622
			c5.793-14.306,12.383-28.423,17.211-43.12c4.849-14.759,7.943-30.099,11.581-44.306c3.125,2.636,6.272,5.43,9.568,8.033
			c17.126,13.533,36.498,14.844,56.793,9.969c21.566-5.187,38.609-17.416,51.233-35.391c21.345-30.401,28.877-64.796,23.716-100.989
			c-5.334-37.428-27.494-64.512-62.234-78.148c-52.345-20.548-101.969-13.632-144.958,24.026
			c-33.057,28.967-44.168,78.07-28.27,116.298c5.514,13.252,14.222,23.652,27.401,29.899c6.679,3.169,9.515,1.877,11.444-5.097
			c0.148-0.522,0.323-1.034,0.511-1.534c3.7-9.762,2.837-17.786-3.753-27.205c-11.998-17.175-9.858-37.053-4.07-56.098
			c10.981-36.115,43.252-60.215,81.095-60.563c10.137-0.096,20.574,0.775,30.39,3.167c29.203,7.128,48.059,29.71,49.945,59.651
			c1.513,24.011-2.235,47.338-12.677,69.267c-5.166,10.854-11.993,20.505-22.145,27.336c-9.537,6.421-19.968,9.009-31.286,6.052
			c-15.593-4.075-24.443-18.303-20.5-33.911c4.09-16.172,9.377-32.05,13.388-48.244c1.692-6.847,2.584-14.286,1.888-21.265
			c-1.892-18.998-19.847-27.859-36.632-18.586c-11.755,6.499-17.416,17.358-20.041,29.925c-2.704,12.947-1.397,25.709,2.82,38.26
			c0.843,2.525,0.969,5.641,0.374,8.244L180.816,380.961z"/>
		<path d="M251.176,438.132c-17.708,0-35.196-2.58-51.658-7.793c-1.329-0.421-2.422-1.377-3.015-2.638
			c-0.593-1.262-0.633-2.713-0.11-4.005c1.775-4.384,3.648-8.807,5.46-13.083c4.1-9.679,8.339-19.687,11.635-29.72
			c3.325-10.122,5.839-20.646,8.27-30.825c1.039-4.35,2.113-8.848,3.218-13.161c0.427-1.667,1.681-2.997,3.32-3.522
			c1.638-0.523,3.432-0.169,4.747,0.94c0.966,0.814,1.933,1.643,2.906,2.478c2.128,1.823,4.328,3.709,6.538,5.454
			c14.335,11.326,31.025,14.196,52.526,9.031c19.84-4.772,36.094-16.011,48.309-33.403c20.268-28.868,27.959-61.642,22.858-97.41
			c-5.037-35.34-25.477-60.998-59.111-74.2c-51.974-20.403-99.022-12.621-139.836,23.133
			c-30.98,27.147-42.313,73.668-26.948,110.617c5.401,12.98,13.555,21.911,24.926,27.301c1.917,0.909,2.885,1.107,3.278,1.147
			c0.218-0.315,0.674-1.14,1.204-3.058c0.187-0.659,0.397-1.291,0.652-1.967c3.193-8.422,2.303-14.749-3.171-22.574
			c-14.44-20.671-9.631-44.381-4.757-60.418c5.701-18.747,16.858-34.739,32.267-46.246c15.406-11.505,33.929-17.683,53.567-17.863
			c11.527-0.103,22.164,1.005,31.621,3.31c31.14,7.601,51.735,32.198,53.751,64.194c1.628,25.85-2.797,49.983-13.153,71.731
			c-6.253,13.14-14.061,22.736-23.867,29.335c-11.342,7.636-23.234,9.906-35.342,6.741c-18.281-4.777-28.634-21.962-24.083-39.973
			c2.001-7.914,4.312-15.844,6.545-23.514c2.356-8.086,4.792-16.449,6.837-24.708c1.732-7.011,2.343-13.778,1.766-19.566
			c-0.713-7.16-4.263-12.914-9.739-15.789c-5.716-3-12.823-2.605-19.5,1.083c-9.267,5.124-14.849,13.566-17.564,26.57
			c-2.402,11.499-1.53,23.158,2.666,35.646c1.121,3.355,1.31,7.445,0.508,10.951c-1.208,5.265-2.428,10.523-3.655,15.781
			c-0.627,2.689-3.314,4.363-6.006,3.732c-2.689-0.628-4.36-3.317-3.732-6.006c1.225-5.245,2.442-10.491,3.646-15.74
			c0.397-1.735,0.302-3.912-0.242-5.542c-4.708-14.013-5.709-27.765-2.973-40.867c3.31-15.846,10.675-26.731,22.517-33.278
			c9.674-5.343,20.237-5.775,28.984-1.184c8.507,4.466,13.989,13.086,15.042,23.651c0.689,6.911-0.005,14.85-2.009,22.959
			c-2.095,8.459-4.56,16.92-6.943,25.103c-2.209,7.585-4.494,15.428-6.451,23.168c-3.217,12.732,3.897,24.444,16.916,27.847
			c9.339,2.44,18.247,0.685,27.23-5.362c8.395-5.649,14.884-13.7,20.422-25.337c9.617-20.196,13.722-42.672,12.202-66.804
			c-1.757-27.884-19.006-48.485-46.141-55.108c-8.649-2.108-18.47-3.139-29.158-3.025c-35.402,0.326-66.088,23.239-76.359,57.018
			c-6.874,22.619-5.83,38.588,3.385,51.78c7.355,10.514,8.691,20.334,4.329,31.841c-0.152,0.404-0.276,0.775-0.377,1.129
			c-0.95,3.436-2.573,7.658-6.639,9.518c-4.097,1.875-8.436,0.306-11.757-1.271c-13.516-6.406-23.568-17.339-29.874-32.495
			c-16.964-40.791-4.519-92.09,29.591-121.979c21.889-19.175,45.938-30.957,71.481-35.018c24.969-3.97,51.416-0.573,78.6,10.098
			c36.651,14.386,59.862,43.542,65.356,82.097c5.472,38.368-2.795,73.55-24.573,104.568c-13.656,19.444-31.877,32.021-54.155,37.379
			c-24.386,5.859-44.36,2.291-61.063-10.907c-1.208-0.954-2.394-1.93-3.557-2.909c-0.411,1.703-0.824,3.431-1.246,5.197
			c-2.479,10.376-5.041,21.106-8.496,31.623c-3.427,10.429-7.749,20.632-11.928,30.499c-1.092,2.578-2.207,5.209-3.305,7.844
			c74.488,20.688,171.077-13.002,208.005-107.23c17.494-44.637,16.428-93.126-3.003-136.537
			c-19.502-43.569-55.16-76.816-100.405-93.616c-45.146-16.767-93.982-14.631-137.516,6.009
			c-43.283,20.521-75.618,56.652-91.048,101.737C51.15,288.089,103,376.26,173.478,409.74c0.168-2.673,0.268-5.426,0.365-8.098
			c0.259-7.142,0.527-14.528,2.09-21.739c0.585-2.699,3.251-4.409,5.946-3.828c2.699,0.585,4.413,3.247,3.828,5.946
			c-1.375,6.343-1.616,12.969-1.871,19.983c-0.111,3.052-0.226,6.208-0.442,9.33c-0.076,1.072-0.057,2.253-0.035,3.621
			c0.012,0.76,0.025,1.569,0.025,2.448c0,1.673-0.836,3.234-2.229,4.162c-1.393,0.927-3.155,1.098-4.699,0.452
			c-40.833-17.064-75.399-50.523-94.834-91.798c-20.711-43.982-23.3-93.964-7.291-140.736
			c16.312-47.659,50.485-85.849,96.226-107.535c45.992-21.805,97.588-24.06,145.281-6.347
			c47.781,17.742,85.444,52.867,106.052,98.905c20.536,45.879,21.668,97.116,3.187,144.271
			c-18.275,46.633-52.979,83.264-97.717,103.145C303.156,432.673,276.934,438.131,251.176,438.132z M188.004,353.001
			c-0.37,0-0.747-0.042-1.123-0.127c-2.691-0.618-4.373-3.3-3.755-5.992c0.866-3.775,1.468-6.106,2.105-8.574
			c0.553-2.143,1.125-4.358,1.9-7.669c0.63-2.688,3.326-4.354,6.009-3.727c2.689,0.63,4.357,3.321,3.727,6.01
			c-0.802,3.419-1.388,5.689-1.954,7.884c-0.62,2.401-1.205,4.669-2.041,8.312C192.342,351.434,190.283,353.001,188.004,353.001z"/>
	</g>
	<g>
		<path d="M44.719,197.001c-0.455,0-0.917-0.063-1.375-0.193c-2.655-0.758-4.193-3.525-3.436-6.181
			c5.44-19.055,13.467-37.304,23.856-54.241c1.444-2.354,4.523-3.091,6.876-1.648c2.354,1.444,3.092,4.523,1.648,6.876
			c-9.915,16.163-17.574,33.577-22.764,51.758C48.897,195.569,46.895,197.001,44.719,197.001z"/>
	</g>
	<g>
		<path d="M109.001,95.229c-1.383,0-2.76-0.571-3.748-1.688c-1.829-2.069-1.634-5.229,0.435-7.058
			c30.997-27.398,68.862-45.406,109.501-52.076c2.729-0.444,5.297,1.4,5.744,4.125s-1.399,5.296-4.125,5.744
			c-38.778,6.364-74.913,23.55-104.498,49.7C111.36,94.816,110.178,95.229,109.001,95.229z"/>
	</g>
</g>
<g>
</g>
<g>
</g>
<g>
</g>
<g>
</g>
<g>
</g>
<g>
</g>
<g>
</g>
<g>
</g>
<g>
</g>
<g>
</g>
<g>
</g>
<g>
</g>
<g>
</g>
<g>
</g>
<g>
</g>
</svg>
