<?xml version="1.0" standalone="no"?>
<!DOCTYPE svg PUBLIC "-//W3C//DTD SVG 20010904//EN"
 "http://www.w3.org/TR/2001/REC-SVG-20010904/DTD/svg10.dtd">
<svg version="1.0" xmlns="http://www.w3.org/2000/svg"
 width="700.000000pt" height="700.000000pt" viewBox="0 0 700.000000 700.000000"
 preserveAspectRatio="xMidYMid meet">
<metadata>
Created by potrace 1.14, written by Peter Selinger 2001-2017
</metadata>
<g transform="translate(0.000000,700.000000) scale(0.100000,-0.100000)"
fill="#000000" stroke="none">
<path d="M3465 6876 c-16 -7 -70 -27 -120 -44 -113 -40 -181 -64 -710 -251
-236 -84 -439 -157 -450 -162 -11 -5 -218 -79 -460 -165 -522 -185 -673 -238
-740 -263 -27 -11 -180 -65 -340 -122 -270 -95 -310 -113 -300 -129 2 -4 7
-31 10 -61 6 -59 23 -204 30 -259 2 -19 7 -60 10 -90 4 -30 8 -66 10 -80 2
-14 6 -52 10 -85 3 -33 10 -98 16 -145 5 -47 12 -105 15 -130 2 -25 7 -61 9
-80 3 -19 7 -53 9 -75 12 -99 16 -138 21 -180 3 -25 7 -65 10 -90 11 -102 16
-142 20 -175 3 -19 7 -60 10 -90 4 -30 8 -66 10 -80 2 -14 6 -54 10 -90 4 -36
8 -76 10 -90 2 -14 7 -50 10 -80 16 -151 36 -318 40 -340 2 -14 7 -55 10 -92
3 -37 7 -75 9 -85 3 -15 12 -94 21 -183 3 -28 24 -206 30 -260 3 -19 7 -57 10
-85 3 -27 8 -66 10 -85 3 -19 7 -62 10 -95 3 -33 8 -71 10 -85 3 -14 7 -52 11
-85 3 -33 7 -73 10 -90 2 -16 6 -55 9 -85 3 -30 8 -71 10 -90 3 -19 7 -55 10
-80 3 -25 7 -61 10 -80 5 -45 14 -123 20 -180 3 -25 7 -61 10 -80 6 -51 18
-163 18 -176 0 -7 23 -24 51 -39 28 -15 130 -71 226 -125 96 -53 207 -114 245
-135 39 -21 92 -51 118 -67 26 -15 50 -28 52 -28 2 0 36 -19 77 -42 40 -22 91
-51 113 -63 22 -12 74 -40 115 -63 76 -43 257 -142 359 -198 54 -30 77 -42
224 -125 38 -22 70 -39 72 -39 2 0 30 -15 62 -34 58 -33 112 -63 208 -116 28
-15 151 -83 275 -152 124 -68 254 -141 290 -160 36 -20 93 -52 128 -72 l64
-36 56 32 c31 17 91 50 132 73 41 23 100 56 130 72 77 43 961 531 1225 678
121 67 252 139 290 160 39 21 104 57 145 80 41 23 102 57 135 75 33 18 74 41
90 50 17 9 64 35 105 58 103 56 333 185 352 197 11 7 20 49 32 165 10 85 19
169 21 185 7 53 24 202 55 480 11 99 25 214 30 255 12 96 16 134 35 305 9 77
18 157 20 178 6 44 12 95 19 157 3 25 10 83 15 130 6 47 13 112 16 145 4 33 8
71 10 85 2 14 6 50 10 80 8 82 12 116 24 210 6 47 13 112 16 145 3 33 8 74 10
92 3 17 9 73 15 125 10 90 16 143 25 218 3 19 7 58 10 85 11 94 15 130 20 165
2 19 7 62 10 95 3 33 8 67 10 75 2 8 7 51 10 95 4 44 8 82 10 85 1 3 6 41 10
84 4 43 8 86 10 95 1 9 6 48 10 86 4 39 8 77 10 85 2 8 6 48 10 88 4 40 10 97
14 128 4 30 4 57 0 59 -5 4 -989 356 -1474 528 -325 115 -820 292 -865 308
-30 12 -125 45 -210 76 -85 30 -255 90 -378 134 -122 43 -224 79 -225 79 -1
-1 -15 -7 -32 -14z"/>
</g>
</svg>
