<?xml version="1.0" encoding="iso-8859-1"?>
<!-- Generator: Adobe Illustrator 19.0.0, SVG Export Plug-In . SVG Version: 6.00 Build 0)  -->
<svg version="1.1" id="Layer_1" xmlns="http://www.w3.org/2000/svg" xmlns:xlink="http://www.w3.org/1999/xlink" x="0px" y="0px"
	 viewBox="0 0 502 502" style="enable-background:new 0 0 502 502;" xml:space="preserve">
<g>
	<g>
		<g>
			<rect x="5" y="5" style="fill:#50ABF1;" width="492" height="492"/>
		</g>
		<g>
			<path d="M497,502H5c-2.761,0-5-2.239-5-5V5c0-2.761,2.239-5,5-5h492c2.761,0,5,2.239,5,5v492C502,499.761,499.761,502,497,502z
				 M10,492h482V10H10V492z"/>
		</g>
	</g>
	<g>
		<g>
			<path style="fill:#FFFFFF;" d="M114,141.851c-6.211-5.791-12.259-12.159-18.042-19.162c0,0-35.518,48.492,21.171,98.354
				c0,0-17.233-0.686-32.097-9.568c0,0-5.461,58.744,58.733,73.768c0,0-12.63,4.781-32.783,1.371c0,0,11.271,47.469,68.306,51.902
				c0,0-45.102,40.742-109.128,31.185l0.022,0.005c32.745,20.764,71.586,32.783,113.224,32.783
				c116.967,0,211.789-94.832,211.789-211.788c0-2.92-0.058-5.82-0.174-8.71c4.232-3.331,30.4-24.305,36.815-37.785
				c0,0-21.254,8.83-42.05,10.908c-0.043,0-0.09,0.009-0.132,0.009c0,0,0.042-0.02,0.111-0.067
				c1.919-1.282,28.709-19.52,32.335-41.249c0,0-15.029,8.023-36.072,15.04c-3.484,1.159-7.133,2.298-10.892,3.352
				c-13.564-14.48-32.846-23.516-54.248-23.516c-41.054,0-74.321,33.258-74.321,74.279c0,5.788,0.664,11.423,1.924,16.832
				c-2.38-0.096-18.822-0.997-41.492-7.164L170,179.197c-8.835-4.079-17.926-8.961-26.997-14.807L114,141.851z"/>
		</g>
	</g>
	<g>
		<path d="M194.994,371.911c-2.529,0-4.699-1.912-4.967-4.482c-0.286-2.747,1.708-5.205,4.455-5.492
			c13.595-1.418,27.014-4.396,39.883-8.85c2.611-0.902,5.458,0.481,6.36,3.09c0.903,2.609-0.48,5.457-3.09,6.36
			c-13.591,4.704-27.761,7.849-42.117,9.346C195.342,371.902,195.167,371.911,194.994,371.911z M277.005,342.596
			c-1.625,0-3.219-0.791-4.18-2.25c-1.519-2.306-0.881-5.407,1.424-6.926c42.606-28.072,71.355-72.962,78.876-123.16
			c0.41-2.731,2.962-4.613,5.686-4.204c2.731,0.409,4.613,2.955,4.204,5.686c-7.941,53.003-38.29,100.397-83.264,130.029
			C278.904,342.329,277.949,342.596,277.005,342.596z"/>
	</g>
	<g>
		<path d="M449,52h-43c-2.761,0-5-2.239-5-5s2.239-5,5-5h43c2.761,0,5,2.239,5,5S451.761,52,449,52z"/>
	</g>
	<g>
		<path d="M356,52H56c-2.761,0-5-2.239-5-5s2.239-5,5-5h300c2.761,0,5,2.239,5,5S358.761,52,356,52z"/>
	</g>
	<g>
		<g>
			<path d="M183.405,407.489c-41.161,0-81.2-11.582-115.8-33.496c-1.768-1.06-2.76-3.147-2.338-5.266
				c0.521-2.616,2.99-4.364,5.631-3.971c44.506,6.644,79.766-12.153,95.738-22.948c-23.85-4.828-38.445-17.355-46.793-27.78
				c-10.529-13.147-13.602-25.73-13.727-26.259c-0.387-1.632,0.069-3.349,1.215-4.573c1.146-1.224,2.829-1.792,4.483-1.512
				c3.537,0.599,6.827,0.927,9.835,1.066c-20.697-10.169-30.922-25.615-35.965-38.16c-7.029-17.486-5.693-32.929-5.633-33.578
				c0.159-1.71,1.184-3.218,2.715-3.996c1.531-0.777,3.354-0.714,4.828,0.167c4.89,2.922,10.081,4.887,14.735,6.207
				c-20.493-23.165-23.527-45.313-22.023-60.708c1.905-19.495,11.22-32.407,11.616-32.947c0.912-1.245,2.347-1.999,3.889-2.043
				c1.528-0.051,3.018,0.625,4,1.814c5.436,6.582,11.355,12.87,17.596,18.688c2.02,1.883,2.13,5.047,0.247,7.067
				c-1.882,2.02-5.046,2.131-7.066,0.247c-4.841-4.514-9.499-9.296-13.904-14.273c-6.835,13.44-18.414,48.974,23.744,86.054
				c1.59,1.398,2.126,3.646,1.34,5.612s-2.736,3.22-4.841,3.139c-0.636-0.025-13.444-0.606-26.891-6.414
				c1.05,15.547,8.705,49.946,54.864,60.749c2.142,0.501,3.705,2.344,3.85,4.539s-1.162,4.227-3.219,5.006
				c-0.49,0.185-10.695,3.95-27.175,2.646c5.47,12.638,21.309,37.855,61.317,40.965c1.992,0.155,3.7,1.48,4.345,3.372
				c0.645,1.891,0.102,3.984-1.381,5.324c-1.687,1.523-37.408,33.169-90.795,33.932c28.325,14.005,59.588,21.331,91.561,21.331
				c114.024,0,206.79-92.765,206.79-206.788c0-2.837-0.057-5.7-0.17-8.508c-0.064-1.603,0.644-3.139,1.904-4.13
				c7.181-5.652,18.228-15.098,26.292-23.823c-7.894,2.376-17.916,4.849-27.937,5.85c-0.049,0.005-0.098,0.009-0.147,0.013
				c-0.167,0.015-0.329,0.022-0.482,0.022c-2.389,0-4.603-1.618-5.064-3.961c-0.448-2.271,0.572-4.473,2.646-5.433
				c2.538-1.737,18.442-12.985,26.128-27.18c-6.454,2.892-15.36,6.574-25.754,10.04c-3.918,1.304-7.555,2.423-11.124,3.423
				c-1.795,0.504-3.723-0.035-4.999-1.396c-13.25-14.145-31.22-21.934-50.599-21.934c-38.224,0-69.321,31.078-69.321,69.279
				c0,5.308,0.604,10.589,1.794,15.697c0.354,1.521-0.022,3.119-1.017,4.322s-2.509,1.865-4.054,1.809
				c-1.88-0.076-19.046-0.927-42.603-7.335c-2.665-0.725-4.237-3.473-3.512-6.137c0.725-2.665,3.472-4.24,6.137-3.512
				c14.952,4.067,27.089,5.786,34.065,6.501c-0.539-3.744-0.811-7.54-0.811-11.345c0-43.714,35.583-79.279,79.321-79.279
				c20.82,0,40.96,8.304,55.739,22.883c2.514-0.743,5.096-1.557,7.822-2.463c20.348-6.786,35.149-14.628,35.296-14.707
				c1.68-0.895,3.725-0.76,5.271,0.352c1.546,1.111,2.328,3.004,2.014,4.882c-2.118,12.694-11.054,24.042-19.337,32.139
				c12.417-3.146,22.084-7.122,22.225-7.18c1.912-0.792,4.115-0.326,5.541,1.174c1.425,1.5,1.78,3.724,0.891,5.592
				c-6.213,13.056-28.29,31.575-36.246,37.98c0.06,2.116,0.091,4.248,0.091,6.366C400.194,310.239,302.943,407.489,183.405,407.489z
				 M169.998,184.199c-0.702,0-1.414-0.148-2.093-0.461c-9.613-4.437-18.902-9.532-27.61-15.143c-2.321-1.496-2.99-4.59-1.495-6.912
				c1.496-2.321,4.589-2.991,6.912-1.495c8.316,5.359,17.193,10.228,26.384,14.47c2.507,1.157,3.601,4.128,2.444,6.635
				C173.696,183.122,171.887,184.199,169.998,184.199z"/>
		</g>
	</g>
</g>
<g>
</g>
<g>
</g>
<g>
</g>
<g>
</g>
<g>
</g>
<g>
</g>
<g>
</g>
<g>
</g>
<g>
</g>
<g>
</g>
<g>
</g>
<g>
</g>
<g>
</g>
<g>
</g>
<g>
</g>
</svg>
