<?xml version="1.0" encoding="iso-8859-1"?>
<!-- Generator: Adobe Illustrator 19.0.0, SVG Export Plug-In . SVG Version: 6.00 Build 0)  -->
<svg version="1.1" id="Layer_1" xmlns="http://www.w3.org/2000/svg" xmlns:xlink="http://www.w3.org/1999/xlink" x="0px" y="0px"
	 viewBox="0 0 512 512" style="enable-background:new 0 0 512 512;" xml:space="preserve">
<circle style="fill:#37465C;" cx="256" cy="256" r="256"/>
<path style="fill:#29394C;" d="M276.058,109.468l-46.752,272.105l114.862,114.838c73.988-27.143,131.953-87.469,155.889-162.945
	L276.058,109.468z"/>
<path style="fill:#FFFFFF;" d="M325.191,342.525c0,0-8.695,10.006-25.221,10.006c-16.522,0-23.911-10.006-23.911-24.786v-83.773
	h53.426v-50.767h-53.426v-83.735H235.83c-6.289,37.574-31.063,68.87-64.671,84.228v50.274h39.241v96.468
	c0,13.391,12.61,62.093,76.964,62.093c37.828,0,53.479-24.352,53.479-24.352L325.191,342.525z"/>
<path style="fill:#D1D1D1;" d="M325.191,342.525c0,0-8.695,10.006-25.221,10.006c-16.522,0-23.911-10.006-23.911-24.786v-83.771
	h53.426v-50.767h-53.426v-83.737h-21.783v287.723c9.126,3.31,20.025,5.341,33.087,5.341c37.828,0,53.479-24.352,53.479-24.352
	L325.191,342.525z"/>
<g>
</g>
<g>
</g>
<g>
</g>
<g>
</g>
<g>
</g>
<g>
</g>
<g>
</g>
<g>
</g>
<g>
</g>
<g>
</g>
<g>
</g>
<g>
</g>
<g>
</g>
<g>
</g>
<g>
</g>
</svg>
